HIERARCHY
ROOT Beta:Hips
{
	OFFSET 0.00 0.00 0.00
	CHANNELS 6 Xposition Yposition Zposition Yrotation Xrotation Zrotation
	JOINT Beta:Spine
	{
		OFFSET	0.0000	9.2263	1.5771
		CHANNELS 3 Xrotation Yrotation Zrotation
		JOINT Beta:Spine1
		{
			OFFSET	0.0000	16.2540	-0.1656
			CHANNELS 3 Xrotation Yrotation Zrotation
			JOINT Beta:Spine2
			{
				OFFSET	0.0000	13.6396	-1.2923
				CHANNELS 3 Xrotation Yrotation Zrotation
				JOINT Beta:Neck
				{
					OFFSET	0.0000	13.8774	-4.3542
					CHANNELS 3 Xrotation Yrotation Zrotation
					JOINT Beta:Neck1
					{
						OFFSET	0.0000	4.3400	0.9269
						CHANNELS 3 Xrotation Yrotation Zrotation
						JOINT Beta:Head
						{
							OFFSET	0.0000	4.0266	0.8585
							CHANNELS 3 Xrotation Yrotation Zrotation
							End Site
							{
								OFFSET 0.0000 23.0297 0.1231
							}
						}
					}
				}
				JOINT Beta:LeftShoulder
				{
					OFFSET	6.1442	10.1870	-3.7932
					CHANNELS 3 Zrotation Xrotation Yrotation
					JOINT Beta:LeftArm
					{
						OFFSET	12.3191	-1.1130	-1.7935
						CHANNELS 3 Zrotation Xrotation Yrotation
						JOINT Beta:LeftForeArm
						{
							OFFSET	27.6870	0.0000	0.0000
							CHANNELS 3 Xrotation Zrotation Yrotation
							JOINT Beta:LeftHand
							{
								OFFSET	27.8738	0.0000	0.0000
								CHANNELS 3 Zrotation Yrotation Xrotation
								JOINT Beta:LeftHandThumb1
								{
									OFFSET	2.3785	-1.0029	2.6209
									CHANNELS 3 Zrotation Xrotation Yrotation
									JOINT Beta:LeftHandThumb2
									{
										OFFSET	3.3624	-1.0029	2.8398
										CHANNELS 3 Zrotation Xrotation Yrotation
										JOINT Beta:LeftHandThumb3
										{
											OFFSET	4.5018	-1.3445	2.1783
											CHANNELS 3 Zrotation Xrotation Yrotation
											End Site
											{
												OFFSET 2.6000 -1.0000 1.0000
											}
										}
									}
								}
								JOINT Beta:LeftHandMiddle1
								{
									OFFSET	10.4639	0.6148	0.4298
									CHANNELS 3 Zrotation Xrotation Yrotation
									JOINT Beta:LeftHandMiddle2
									{
										OFFSET	5.7921	0.0000	0.0000
										CHANNELS 3 Zrotation Xrotation Yrotation
										JOINT Beta:LeftHandMiddle3
										{
											OFFSET	3.7132	0.0000	0.0000
											CHANNELS 3 Zrotation Xrotation Yrotation
											End Site
											{
												OFFSET 2.3000 0.0000 0.0000
											}
										}
									}
								}
								JOINT Beta:LeftHandIndex1
								{
									OFFSET	10.3945	0.6148	2.7055
									CHANNELS 3 Zrotation Xrotation Yrotation
									JOINT Beta:LeftHandIndex2
									{
										OFFSET	5.5493	0.0000	0.0000
										CHANNELS 3 Zrotation Xrotation Yrotation
										JOINT Beta:LeftHandIndex3
										{
											OFFSET	3.3911	0.0000	0.0000
											CHANNELS 3 Zrotation Xrotation Yrotation
											End Site
											{
												OFFSET 2.5000 0.0000 0.0000
											}
										}
									}
								}
								JOINT Beta:LeftHandRing1
								{
									OFFSET	10.3252	0.3211	-1.8755
									CHANNELS 3 Zrotation Xrotation Yrotation
									JOINT Beta:LeftHandRing2
									{
										OFFSET	5.4452	0.0000	0.0000
										CHANNELS 3 Zrotation Xrotation Yrotation
										JOINT Beta:LeftHandRing3
										{
											OFFSET	3.7132	0.0000	0.0000
											CHANNELS 3 Zrotation Xrotation Yrotation
											End Site
											{
												OFFSET 2.0000 0.0000 0.0000
											}
										}
									}
								}
								JOINT Beta:LeftHandPinky1
								{
									OFFSET	10.0130	-0.0783	-3.9671
									CHANNELS 3 Zrotation Xrotation Yrotation
									JOINT Beta:LeftHandPinky2
									{
										OFFSET	3.6763	0.0000	0.0000
										CHANNELS 3 Zrotation Xrotation Yrotation
										JOINT Beta:LeftHandPinky3
										{
											OFFSET	2.8113	0.0000	0.0000
											CHANNELS 3 Zrotation Xrotation Yrotation
											End Site
											{
												OFFSET 2.9000 0.0000 0.0000
											}
										}
									}
								}
							}
						}
					}
				}
				JOINT Beta:RightShoulder
				{
					OFFSET	-6.1402	10.1870	-3.7932
					CHANNELS 3 Zrotation Xrotation Yrotation
					JOINT Beta:RightArm
					{
						OFFSET	-12.3231	-1.1130	-1.7935
						CHANNELS 3 Zrotation Xrotation Yrotation
						JOINT Beta:RightForeArm
						{
							OFFSET	-27.6870	0.0000	0.0000
							CHANNELS 3 Xrotation Zrotation Yrotation
							JOINT Beta:RightHand
							{
								OFFSET	-27.8738	0.0000	0.0000
								CHANNELS 3 Zrotation Yrotation Xrotation
								JOINT Beta:RightHandThumb1
								{
									OFFSET	-2.5178	-0.9367	2.5137
									CHANNELS 3 Zrotation Xrotation Yrotation
									JOINT Beta:RightHandThumb2
									{
										OFFSET	-3.2638	-1.0870	2.9669
										CHANNELS 3 Zrotation Xrotation Yrotation
										JOINT Beta:RightHandThumb3
										{
											OFFSET	-4.4165	-1.3703	2.1350
											CHANNELS 3 Zrotation Xrotation Yrotation
											End Site
											{
												OFFSET -2.6000 -1.0000 1.0000
											}
										}
									}
								}
								JOINT Beta:RightHandIndex1
								{
									OFFSET	-10.4665	0.4896	2.7120
									CHANNELS 3 Zrotation Xrotation Yrotation
									JOINT Beta:RightHandIndex2
									{
										OFFSET	-5.3768	0.0000	0.0000
										CHANNELS 3 Zrotation Xrotation Yrotation
										JOINT Beta:RightHandIndex3
										{
											OFFSET	-3.3855	0.0000	0.0000
											CHANNELS 3 Zrotation Xrotation Yrotation
											End Site
											{
												OFFSET -2.6000 0.0000 0.0000
											}
										}
									}
								}
								JOINT Beta:RightHandMiddle1
								{
									OFFSET	-10.7596	0.4896	0.4278
									CHANNELS 3 Zrotation Xrotation Yrotation
									JOINT Beta:RightHandMiddle2
									{
										OFFSET	-5.6168	0.0000	0.0000
										CHANNELS 3 Zrotation Xrotation Yrotation
										JOINT Beta:RightHandMiddle3
										{
											OFFSET	-3.7364	0.0000	0.0000
											CHANNELS 3 Zrotation Xrotation Yrotation
											End Site
											{
												OFFSET -2.3000 0.0000 0.0000
											}
										}
									}
								}
								JOINT Beta:RightHandRing1
								{
									OFFSET	-10.4702	0.3879	-1.9363
									CHANNELS 3 Zrotation Xrotation Yrotation
									JOINT Beta:RightHandRing2
									{
										OFFSET	-5.4013	0.0000	0.0000
										CHANNELS 3 Zrotation Xrotation Yrotation
										JOINT Beta:RightHandRing3
										{
											OFFSET	-3.3916	0.0000	0.0000
											CHANNELS 3 Zrotation Xrotation Yrotation
											End Site
											{
												OFFSET -2.2000 0.0000 0.0000
											}
										}
									}
								}
								JOINT Beta:RightHandPinky1
								{
									OFFSET	-9.9715	-0.1191	-3.9540
									CHANNELS 3 Zrotation Xrotation Yrotation
									JOINT Beta:RightHandPinky2
									{
										OFFSET	-3.6528	0.0000	0.0000
										CHANNELS 3 Zrotation Xrotation Yrotation
										JOINT Beta:RightHandPinky3
										{
											OFFSET	-2.7820	0.0000	0.0000
											CHANNELS 3 Zrotation Xrotation Yrotation
											End Site
											{
												OFFSET -2.9000 0.0000 0.0000
											}
										}
									}
								}
							}
						}
					}
				}
			}
		}
	}
	JOINT Beta:LeftUpLeg
	{
		OFFSET	9.6338	-3.2733	0.0000
		CHANNELS 3 Xrotation Yrotation Zrotation
		JOINT Beta:LeftLeg
		{
			OFFSET	0.0000	-41.7300	-1.7300
			CHANNELS 3 Xrotation Yrotation Zrotation
			JOINT Beta:LeftFoot
			{
				OFFSET	0.0126	-39.1900	-0.8477
				CHANNELS 3 Xrotation Yrotation Zrotation
				JOINT Beta:LeftToeBase
				{
					OFFSET	-0.1833	-12.1931	8.2823
					CHANNELS 3 Xrotation Yrotation Zrotation
					End Site
					{
						OFFSET 0.0000 0.0000 10.1681
					}
				}
			}
		}
	}
	JOINT Beta:RightUpLeg
	{
		OFFSET	-9.6338	-3.2733	0.0000
		CHANNELS 3 Xrotation Yrotation Zrotation
		JOINT Beta:RightLeg
		{
			OFFSET	0.0000	-41.7300	-1.7300
			CHANNELS 3 Xrotation Yrotation Zrotation
			JOINT Beta:RightFoot
			{
				OFFSET	0.0126	-39.1900	-0.8477
				CHANNELS 3 Xrotation Yrotation Zrotation
				JOINT Beta:RightToeBase
				{
					OFFSET	-0.1833	-12.1931	8.2823
					CHANNELS 3 Xrotation Yrotation Zrotation
					End Site
					{
						OFFSET 0.0032 0.0000 10.1681
					}
				}
			}
		}
	}
}
MOTION
Frames: 9
Frame Time: 0.0333333
0.8049 92.0702 0.0019 -1.0234 -2.7894 2.9507 -3.6866 2.0899 2.3652 1.8251 0.2046 -3.5634 1.8397 0.2223 -3.5554 0.0053 -3.0443 -0.0190 -0.0000 0.0000 -0.0000 5.6697 4.0997 0.1124 -8.7242 5.2362 -12.4185 -69.0677 -27.6912 21.0293 -0.0000 0.0000 -37.4495 -4.8136 8.8747 16.6013 12.2845 -0.1760 16.6632 -8.7762 1.4399 10.9854 -0.3140 0.3675 4.3024 -15.3649 0.6350 -3.5073 -24.7771 -0.0935 0.4255 -22.2203 -0.0754 0.3839 -12.0652 0.5251 -6.6253 -27.3343 -0.1134 0.4662 -18.3843 -0.0518 0.3202 -16.3990 0.6696 -0.7782 -34.9718 -0.1833 0.5819 -3.2073 -0.0016 0.0568 -15.8659 0.6740 9.1686 -35.8496 2.2002 -2.7182 -27.3549 -0.1135 0.4665 8.2604 3.5053 13.7524 92.7484 26.4454 -52.1394 -0.0000 0.0000 75.2588 -53.6576 56.6801 -0.2970 13.9177 10.2685 -3.4910 1.5105 -0.9211 6.2163 -6.5445 -9.3591 23.3532 -41.0519 -1.9125 13.8132 16.1730 -0.0904 -0.6363 15.2171 -0.0801 -0.5996 -31.5481 -1.4230 8.3210 23.3436 -0.1870 -0.9052 0.8698 2.1026 -0.0346 -23.3653 -1.0014 5.5324 11.7574 -0.0479 -0.4655 3.0086 -0.7335 -0.1200 -19.8002 -0.7723 -9.4511 10.9403 -0.0415 -0.4336 9.2858 -0.0299 -0.3686 -8.0903 1.6465 -17.2064 25.2337 10.3345 4.2587 -18.1485 15.7875 7.7598 -7.7897 -0.0000 -0.0000 -26.8296 -4.1715 0.7092 30.8622 -10.0584 -3.1157 -3.0463 -16.3039 -2.2563 -0.2430 -0.0000 -0.0000 
0.8238 92.0596 0.0668 -1.0575 -2.7893 2.9999 -3.8087 2.1261 2.4075 1.8626 0.2086 -3.5964 1.8775 0.2264 -3.5879 0.0167 -3.0494 0.0040 -0.0000 0.0000 -0.0000 5.6287 4.0962 0.1495 -8.7551 5.3177 -12.5402 -68.9031 -27.4178 21.4364 -0.0000 0.0000 -37.6036 -5.0507 8.8636 16.0569 12.2959 -0.1745 16.6658 -8.7755 1.4398 10.9830 -0.3143 0.3677 4.3035 -15.3828 0.6356 -3.5123 -24.7766 -0.0934 0.4255 -22.2208 -0.0754 0.3839 -12.0918 0.5260 -6.6370 -27.3346 -0.1134 0.4662 -18.3844 -0.0518 0.3202 -16.4186 0.6703 -0.7765 -34.9704 -0.1833 0.5819 -3.1992 -0.0016 0.0567 -15.8605 0.6737 9.1364 -35.8717 2.2013 -2.7170 -27.3543 -0.1135 0.4665 8.2876 3.5208 13.8054 92.2564 26.2381 -52.2350 0.0000 0.0000 75.9122 -51.1753 56.4900 1.0175 14.0987 10.2911 -3.6052 1.5070 -0.9272 6.2475 -6.5699 -9.5039 23.9853 -41.0479 -1.9115 13.9158 15.5124 -0.0832 -0.6110 14.7455 -0.0752 -0.5814 -32.3330 -1.4642 8.5921 22.4629 -0.1733 -0.8728 0.2891 2.1697 -0.0115 -23.7651 -1.0216 5.6280 11.2692 -0.0440 -0.4464 2.5578 -0.7349 -0.1020 -20.2482 -0.7930 -9.6105 10.8988 -0.0412 -0.4319 9.2418 -0.0297 -0.3669 -8.0193 1.6101 -17.2742 25.1875 10.3344 4.2409 -18.1839 15.7815 7.7861 -7.8502 0.0000 -0.0000 -26.8760 -4.1518 0.6741 31.0234 -10.0552 -3.1662 -3.1474 -16.3395 -2.1948 -0.2002 0.0000 -0.0000 
0.8429 92.0481 0.1405 -1.0964 -2.7994 3.0351 -3.8874 2.1502 2.4641 1.8913 0.2100 -3.6456 1.9066 0.2283 -3.6369 0.0381 -3.0538 0.0152 -0.0000 0.0000 -0.0000 5.6294 4.0667 0.2038 -8.8184 5.4707 -12.7854 -68.6842 -27.1693 21.6251 0.0000 0.0000 -37.7465 -5.4471 8.8502 15.3257 12.2983 -0.1877 16.6407 -8.7762 1.4400 10.9859 -0.3165 0.3692 4.3109 -15.4163 0.6367 -3.5535 -24.7684 -0.0934 0.4253 -22.2255 -0.0754 0.3840 -12.1526 0.5282 -6.6392 -27.3341 -0.1134 0.4662 -18.3844 -0.0518 0.3202 -16.4740 0.6721 -0.7984 -34.9702 -0.1833 0.5819 -3.1993 -0.0016 0.0567 -15.8649 0.6737 9.1130 -35.8719 2.2013 -2.7170 -27.3556 -0.1135 0.4665 8.3243 3.5363 13.8492 91.7994 26.3057 -52.3033 0.0000 0.0000 76.5745 -49.0042 56.0948 2.1101 14.3062 10.3103 -3.6859 1.5042 -0.9321 6.2697 -6.5868 -9.5993 24.4445 -41.0463 -1.9109 13.9871 15.0438 -0.0783 -0.5929 14.4262 -0.0720 -0.5691 -32.9568 -1.4970 8.8063 21.8457 -0.1641 -0.8501 -0.1390 2.2125 0.0055 -24.1206 -1.0397 5.7105 10.8882 -0.0411 -0.4315 2.2469 -0.7371 -0.0896 -20.5488 -0.8073 -9.6889 10.8153 -0.0406 -0.4286 9.2067 -0.0294 -0.3655 -7.9150 1.5459 -17.3572 25.1122 10.3351 4.2308 -18.2251 15.7864 7.8310 -8.0686 0.0000 -0.0000 -26.9061 -4.1404 0.6483 31.1948 -10.0514 -3.2332 -3.2594 -16.4337 -2.1119 -0.1970 -0.0000 -0.0000 
0.8644 92.0330 0.2216 -1.1324 -2.8219 3.0523 -3.9373 2.1705 2.5489 1.9266 0.2105 -3.7042 1.9423 0.2291 -3.6952 0.0622 -3.0587 0.0081 -0.0000 0.0000 -0.0000 5.6470 4.0117 0.2438 -8.9118 5.6952 -13.1366 -68.4113 -26.8699 21.6543 -0.0000 0.0000 -37.8571 -5.8774 8.8096 14.4174 12.2775 -0.2097 16.5980 -8.7812 1.4409 11.0049 -0.3221 0.3730 4.3301 -15.4108 0.6366 -3.6131 -24.7506 -0.0933 0.4250 -22.2260 -0.0754 0.3840 -12.1372 0.5276 -6.6297 -27.3324 -0.1133 0.4661 -18.3844 -0.0518 0.3202 -16.5155 0.6735 -0.8317 -34.9652 -0.1833 0.5818 -3.2133 -0.0016 0.0569 -15.9017 0.6750 9.1405 -35.8300 2.1993 -2.7193 -27.3614 -0.1136 0.4666 8.3814 3.5591 13.9051 91.3393 26.4382 -52.3771 0.0000 0.0000 77.2390 -47.0203 55.6603 3.0687 14.5366 10.3232 -3.7349 1.5026 -0.9347 6.2819 -6.5961 -9.6464 24.7217 -41.0445 -1.9105 14.0235 14.7756 -0.0755 -0.5826 14.2641 -0.0704 -0.5629 -33.4073 -1.5208 8.9556 21.5028 -0.1590 -0.8374 -0.4075 2.2350 0.0162 -24.4243 -1.0551 5.7755 10.6227 -0.0392 -0.4211 2.0806 -0.7384 -0.0830 -20.6952 -0.8145 -9.6881 10.6944 -0.0397 -0.4239 9.1815 -0.0292 -0.3645 -7.7774 1.5225 -17.4123 25.0416 10.3334 4.1705 -18.3199 15.9003 7.9260 -8.2317 -0.0000 -0.0000 -26.9219 -4.1155 0.6432 31.3793 -10.0355 -3.2924 -3.3809 -16.5327 -2.0288 -0.2010 0.0000 -0.0000 
0.8967 92.0076 0.3108 -1.1599 -2.8565 3.0853 -4.0195 2.2032 2.5967 1.9901 0.2117 -3.7528 2.0062 0.2309 -3.7434 0.0858 -3.0664 -0.0068 -0.0000 0.0000 -0.0000 5.6500 3.9496 0.2451 -9.0376 6.0102 -13.5937 -68.0676 -26.3659 21.6403 -0.0000 0.0000 -37.9688 -6.0887 8.7318 13.4709 12.2831 -0.2210 16.5772 -8.7857 1.4418 11.0225 -0.3245 0.3747 4.3384 -15.3265 0.6337 -3.6310 -24.7427 -0.0932 0.4249 -22.2102 -0.0753 0.3838 -11.9860 0.5223 -6.6264 -27.3310 -0.1133 0.4661 -18.3850 -0.0518 0.3202 -16.4630 0.6717 -0.8422 -34.9621 -0.1832 0.5818 -3.2265 -0.0016 0.0571 -15.9294 0.6762 9.2022 -35.7750 2.1967 -2.7224 -27.3662 -0.1136 0.4667 8.4132 3.5707 13.9275 90.8941 26.4893 -52.4239 0.0000 0.0000 77.8089 -45.0856 55.3400 3.9324 14.7781 10.3282 -3.7543 1.5029 -0.9338 6.2841 -6.5996 -9.6549 24.8355 -41.0400 -1.9102 14.0299 14.6844 -0.0746 -0.5791 14.2417 -0.0702 -0.5620 -33.6992 -1.5363 9.0440 21.4019 -0.1575 -0.8336 -0.5333 2.2436 0.0213 -24.6753 -1.0680 5.8252 10.4633 -0.0380 -0.4149 2.0422 -0.7387 -0.0814 -20.7029 -0.8155 -9.6186 10.5453 -0.0386 -0.4181 9.1664 -0.0292 -0.3639 -7.6290 1.5449 -17.4687 24.9998 10.3280 4.0638 -18.4615 16.0955 8.0614 -8.2556 0.0000 -0.0000 -26.9629 -4.1147 0.5767 31.6526 -10.0423 -3.2813 -3.5618 -16.4981 -1.9817 -0.1599 -0.0000 -0.0000 
0.9437 91.9629 0.4075 -1.1546 -2.8667 3.2076 -4.1940 2.2272 2.4517 2.0776 0.2093 -3.7523 2.0938 0.2300 -3.7425 0.1235 -3.0787 -0.0164 -0.0000 0.0000 -0.0000 5.6493 3.8689 0.2488 -9.2029 6.4367 -14.1684 -67.6218 -25.5712 21.5956 0.0000 -0.0000 -38.1058 -6.2631 8.6742 12.4461 12.4358 -0.2095 16.6096 -8.7725 1.4393 10.9712 -0.3069 0.3626 4.2783 -15.2064 0.6297 -3.5664 -24.7928 -0.0936 0.4257 -22.1756 -0.0751 0.3832 -11.8901 0.5190 -6.6650 -27.3356 -0.1134 0.4662 -18.3850 -0.0518 0.3202 -16.2925 0.6661 -0.8116 -34.9980 -0.1836 0.5823 -3.2007 -0.0016 0.0567 -15.8267 0.6727 9.1706 -35.8158 2.1986 -2.7201 -27.3546 -0.1135 0.4665 8.3056 3.4998 13.6929 90.6015 26.7624 -52.3645 -0.0000 0.0000 78.1084 -43.2397 55.1184 4.5673 15.0190 10.3303 -3.7406 1.5044 -0.9313 6.2803 -6.5992 -9.6385 24.8215 -41.0379 -1.9102 14.0209 14.7272 -0.0751 -0.5807 14.3274 -0.0710 -0.5653 -33.8704 -1.5454 9.0888 21.4866 -0.1588 -0.8368 -0.5468 2.2430 0.0218 -24.8838 -1.0786 5.8706 10.3850 -0.0374 -0.4118 2.1028 -0.7409 -0.0839 -20.6061 -0.8118 -9.4912 10.3733 -0.0373 -0.4113 9.1582 -0.0291 -0.3636 -7.5095 1.5287 -17.6474 24.9523 10.3237 3.9796 -18.5987 16.2977 8.2010 -8.2733 0.0000 -0.0000 -27.1322 -4.1338 0.3589 32.1247 -10.0228 -3.2368 -3.8392 -16.4428 -1.9246 -0.0831 -0.0000 -0.0000 
0.9837 91.8940 0.4933 -1.0333 -2.7769 3.4463 -4.4844 2.1967 1.9745 2.1717 0.1965 -3.6655 2.1869 0.2201 -3.6556 0.1792 -3.1014 -0.0070 -0.0000 0.0000 -0.0000 5.5987 3.7193 0.3499 -9.3844 6.9077 -14.7598 -67.0814 -24.4736 21.4524 -0.0000 0.0000 -38.1737 -6.8151 8.6872 11.2469 12.7921 -0.2078 16.6383 -8.7227 1.4300 10.7787 -0.2618 0.3314 4.1230 -15.1568 0.6280 -3.5081 -24.9360 -0.0946 0.4280 -22.1420 -0.0749 0.3826 -12.2582 0.5320 -6.7577 -27.3469 -0.1135 0.4664 -18.3818 -0.0518 0.3201 -16.1256 0.6606 -0.8009 -35.1228 -0.1849 0.5841 -3.1144 -0.0015 0.0552 -15.5197 0.6615 8.9069 -36.0493 2.2097 -2.7070 -27.3224 -0.1133 0.4660 7.9843 3.2804 12.9506 90.5119 27.5421 -52.1499 -0.0000 -0.0000 78.0158 -41.4034 55.0296 4.8786 15.2622 10.3395 -3.6982 1.5039 -0.9331 6.2756 -6.5957 -9.6068 24.7065 -41.0494 -1.9109 14.0045 14.8731 -0.0765 -0.5864 14.4925 -0.0727 -0.5717 -33.9534 -1.5498 9.0989 21.7144 -0.1621 -0.8452 -0.4723 2.2385 0.0188 -25.0616 -1.0877 5.9150 10.3645 -0.0373 -0.4110 2.2392 -0.7446 -0.0893 -20.4388 -0.8049 -9.3225 10.1822 -0.0360 -0.4038 9.1524 -0.0291 -0.3634 -7.5186 1.5031 -17.8978 24.9804 10.3133 3.8183 -18.7607 16.3559 8.3563 -8.2959 0.0000 -0.0000 -27.5302 -4.1884 -0.0527 32.8254 -9.9982 -3.1210 -4.2376 -16.3893 -1.8952 -0.0607 0.0000 0.0000 
0.9895 91.8001 0.5256 -0.7102 -2.5540 3.7333 -4.7611 2.0592 1.1817 2.2463 0.1685 -3.5009 2.2593 0.1953 -3.4917 0.2235 -3.1366 0.0163 -0.0000 0.0000 -0.0000 5.3512 3.4485 0.6372 -9.5355 7.2875 -15.1999 -66.5167 -23.2344 20.9456 0.0000 -0.0000 -37.9351 -7.9789 8.7206 9.8327 13.1551 -0.2931 16.5038 -8.6457 1.4155 10.4811 -0.2221 0.3039 3.9863 -15.2039 0.6296 -3.6545 -25.1072 -0.0959 0.4308 -22.1471 -0.0749 0.3827 -13.2223 0.5658 -6.8370 -27.3514 -0.1135 0.4664 -18.3749 -0.0518 0.3200 -16.1682 0.6620 -0.9412 -35.3194 -0.1869 0.5869 -3.0217 -0.0014 0.0535 -15.1618 0.6479 8.4761 -36.3454 2.2236 -2.6903 -27.3126 -0.1132 0.4658 7.4692 2.9255 11.7018 90.4844 28.8008 -51.8200 -0.0000 0.0000 77.5341 -39.4502 55.1975 4.8897 15.5124 10.3495 -3.6637 1.5005 -0.9392 6.2686 -6.5891 -9.5641 24.5081 -41.0662 -1.9122 13.9620 15.1054 -0.0789 -0.5953 14.7096 -0.0749 -0.5801 -33.9486 -1.5497 9.0551 22.0557 -0.1672 -0.8578 -0.3294 2.2427 0.0131 -25.1997 -1.0948 5.9333 10.3989 -0.0375 -0.4123 2.4292 -0.7400 -0.0969 -20.2213 -0.7956 -9.1534 9.9986 -0.0347 -0.3966 9.1492 -0.0291 -0.3632 -7.7669 1.5687 -18.0439 25.2790 10.2871 3.4763 -19.0158 16.0901 8.5146 -8.3134 0.0000 -0.0000 -28.1572 -4.2906 -0.5982 33.6732 -9.8944 -2.8922 -4.7169 -16.4845 -1.9448 -0.0806 -0.0000 0.0000 
0.9804 91.6764 0.4622 -0.2570 -2.2890 3.9928 -4.7248 1.7959 0.2637 2.3004 0.1269 -3.3117 2.3103 0.1552 -3.3041 0.1823 -3.1736 0.0169 -0.0000 0.0000 -0.0000 4.6611 3.0802 1.0851 -9.6160 7.4651 -15.3775 -66.0624 -22.1468 19.6622 -0.0000 0.0000 -37.1385 -9.3042 8.5563 8.2882 13.0705 -0.5111 16.0880 -8.5974 1.4064 10.2949 -0.2664 0.3345 4.1386 -15.1692 0.6286 -4.0592 -25.0818 -0.0957 0.4304 -22.2228 -0.0754 0.3840 -14.0442 0.5939 -6.7584 -27.3307 -0.1133 0.4661 -18.3722 -0.0517 0.3200 -16.4597 0.6715 -1.2776 -35.4117 -0.1878 0.5883 -3.0615 -0.0014 0.0542 -15.1221 0.6458 8.2336 -36.2163 2.2176 -2.6976 -27.4243 -0.1141 0.4676 6.8299 2.5311 10.2841 90.4520 30.1203 -51.2501 0.0000 0.0000 76.7195 -37.4453 55.9152 4.8577 15.7353 10.3283 -3.6675 1.5031 -0.9323 6.2479 -6.5796 -9.5136 24.2486 -41.0484 -1.9119 13.8731 15.4039 -0.0821 -0.6068 14.9609 -0.0774 -0.5897 -33.8327 -1.5439 8.9409 22.4751 -0.1735 -0.8733 -0.1379 2.2624 0.0055 -25.2663 -1.0983 5.9002 10.5053 -0.0383 -0.4165 2.6508 -0.7199 -0.1057 -19.9475 -0.7832 -9.0142 9.8628 -0.0338 -0.3913 9.1590 -0.0291 -0.3636 -8.1738 1.9523 -17.9740 25.9412 10.2456 2.9779 -19.3863 15.2873 8.6378 -8.3134 0.0000 -0.0000 -28.9112 -4.0905 -1.0562 34.5015 -10.0119 -2.7826 -5.0151 -16.9814 -1.7827 0.0000 -0.0000 -0.0000 
